<svg xmlns="http://www.w3.org/2000/svg" viewBox="0 0 512 512" fill="none">
  <!-- Círculo de fondo con gradiente -->
  <defs>
    <linearGradient id="bgGradient" x1="0%" y1="0%" x2="100%" y2="100%">
      <stop offset="0%" style="stop-color:#2dd4bf;stop-opacity:1" />
      <stop offset="100%" style="stop-color:#0891b2;stop-opacity:1" />
    </linearGradient>
    <linearGradient id="micGradient" x1="0%" y1="0%" x2="100%" y2="100%">
      <stop offset="0%" style="stop-color:#ffffff;stop-opacity:1" />
      <stop offset="100%" style="stop-color:#e0f2fe;stop-opacity:1" />
    </linearGradient>
  </defs>
  
  <!-- Círculo de fondo -->
  <circle cx="256" cy="256" r="240" fill="url(#bgGradient)"/>
  
  <!-- Micrófono -->
  <g transform="translate(256, 256)">
    <!-- Cuerpo del micrófono -->
    <rect x="-60" y="-140" width="120" height="200" rx="60" fill="url(#micGradient)"/>
    
    <!-- Soporte del micrófono -->
    <path d="M -100 40 Q -100 100 0 100 Q 100 100 100 40" 
          stroke="white" 
          stroke-width="20" 
          fill="none" 
          stroke-linecap="round"/>
    
    <!-- Base del micrófono -->
    <rect x="-10" y="100" width="20" height="60" fill="white"/>
    <rect x="-40" y="160" width="80" height="20" rx="10" fill="white"/>
    
    <!-- Detalles del micrófono (rejilla) -->
    <line x1="-30" y1="-100" x2="30" y2="-100" stroke="#0891b2" stroke-width="4" opacity="0.3"/>
    <line x1="-30" y1="-80" x2="30" y2="-80" stroke="#0891b2" stroke-width="4" opacity="0.3"/>
    <line x1="-30" y1="-60" x2="30" y2="-60" stroke="#0891b2" stroke-width="4" opacity="0.3"/>
    <line x1="-30" y1="-40" x2="30" y2="-40" stroke="#0891b2" stroke-width="4" opacity="0.3"/>
    
    <!-- Ondas de sonido (izquierda) -->
    <path d="M -120 -60 Q -140 -60 -140 -40 Q -140 -20 -120 -20" 
          stroke="white" 
          stroke-width="12" 
          fill="none" 
          stroke-linecap="round"
          opacity="0.6"/>
    
    <path d="M -140 -80 Q -170 -80 -170 -40 Q -170 0 -140 0" 
          stroke="white" 
          stroke-width="12" 
          fill="none" 
          stroke-linecap="round"
          opacity="0.4"/>
    
    <!-- Ondas de sonido (derecha) -->
    <path d="M 120 -60 Q 140 -60 140 -40 Q 140 -20 120 -20" 
          stroke="white" 
          stroke-width="12" 
          fill="none" 
          stroke-linecap="round"
          opacity="0.6"/>
    
    <path d="M 140 -80 Q 170 -80 170 -40 Q 170 0 140 0" 
          stroke="white" 
          stroke-width="12" 
          fill="none" 
          stroke-linecap="round"
          opacity="0.4"/>
  </g>
</svg>